<svg width="480" height="480" viewBox="0 0 480 480" fill="none" xmlns="http://www.w3.org/2000/svg">
  <rect width="480" height="480" rx="72" fill="#ECF4F1" />
  <path d="M240 88C222.327 88 208 102.327 208 120C208 137.673 222.327 152 240 152C257.673 152 272 137.673 272 120C272 102.327 257.673 88 240 88Z" fill="#1A5B4E" />
  <path d="M297.5 168C287.5 192 267.5 224 240 248C212.5 224 192.5 192 182.5 168C166 195 156 229.5 156 266C156 337.558 213.442 395 285 395C356.558 395 414 337.558 414 266C414 229.5 404 195 387.5 168C379.5 200 358.5 214.5 345 168C330 203 316 203 297.5 168Z" fill="#2F6F5C" />
  <path d="M240 224C206 258 195 302 195 348C195 370.643 213.357 389 236 389H244C266.643 389 285 370.643 285 348C285 302 274 258 240 224Z" fill="#4B8F7B" opacity="0.85" />
  <path d="M171 332C149.804 332 132.5 349.304 132.5 370.5V382H347.5V370.5C347.5 349.304 330.196 332 309 332H171Z" fill="#134238" />
  <path d="M120 290C90 290 68 312 68 342V382H132V332C132 316 135 302 145 292L120 290Z" fill="#7FAEA0" opacity="0.6" />
  <path d="M360 290C390 290 412 312 412 342V382H348V332C348 316 345 302 335 292L360 290Z" fill="#7FAEA0" opacity="0.6" />
  <circle cx="140" cy="192" r="34" fill="#C6DDD6" />
  <circle cx="352" cy="192" r="34" fill="#C6DDD6" />
  <rect x="144" y="220" width="192" height="16" rx="8" fill="#DDE9E4" />
  <rect x="164" y="260" width="152" height="16" rx="8" fill="#D5E5DF" />
</svg>

