<svg width="160" height="160" viewBox="0 0 160 160" fill="none" xmlns="http://www.w3.org/2000/svg">
  <rect width="160" height="160" rx="80" fill="#E9F2EE"/>
  <path d="M80 44C76.6863 44 74 46.6863 74 50C74 53.3137 76.6863 56 80 56C83.3137 56 86 53.3137 86 50C86 46.6863 83.3137 44 80 44Z" fill="#134E42"/>
  <path d="M100 60C95 72 88 84 80 92C72 84 65 72 60 60C54 70 50 82 50 96C50 115.882 65.1178 132 85 132C104.882 132 120 115.882 120 96C120 82 116 70 110 60C108 69 104 74 100 60Z" fill="#2F6F5C"/>
  <path d="M80 76C68 88 64 104 64 120C64 126.627 69.3726 132 76 132H84C90.6274 132 96 126.627 96 120C96 104 92 88 80 76Z" fill="#4A8F7A" opacity="0.8"/>
  <path d="M60 112C53.3726 112 48 117.373 48 124V130H112V124C112 117.373 106.627 112 100 112H60Z" fill="#123D35"/>
  <text x="80" y="36" text-anchor="middle" font-family="'Playfair Display', serif" font-size="16" fill="#123D35">ER</text>
</svg>

